<?xml version="1.0" encoding="UTF-8"?>
<svg xmlns="http://www.w3.org/2000/svg" xmlns:xlink="http://www.w3.org/1999/xlink" width="678.75pt" height="208pt" viewBox="0 0 678.75 208" version="1.2">
<defs>
<clipPath id="clip1">
  <path d="M 0.527344 0 L 677.972656 0 L 677.972656 208 L 0.527344 208 Z M 0.527344 0 "/>
</clipPath>
</defs>
<g id="surface1">
<g clip-path="url(#clip1)" clip-rule="nonzero">
<path style=" stroke:none;fill-rule:nonzero;fill:rgb(0%,0%,0%);fill-opacity:1;" d="M 675.496094 43.15625 C 663.65625 42.273438 640.273438 46.605469 630.425781 69.753906 C 620.921875 92.136719 603.023438 137.359375 602.257812 139.316406 C 601.875 140.238281 600.953125 141.5 600.839844 141.652344 C 600.300781 141.460938 599 140.007812 598.578125 139.160156 L 576.15625 83.859375 C 572.898438 74.851562 564.3125 65.769531 552.394531 65.769531 C 540.515625 65.769531 531.890625 74.851562 528.820312 83.359375 L 506.289062 139.007812 C 506.097656 139.429688 504.753906 141.386719 504.335938 141.769531 C 503.875 141.5 502.953125 140.238281 502.535156 139.277344 C 501.765625 137.359375 483.90625 92.175781 474.398438 69.792969 C 464.550781 46.644531 441.058594 42.273438 429.332031 43.195312 L 422.929688 43.195312 C 404.109375 17.058594 373.523438 0 338.992188 0 C 304.421875 0 273.875 17.058594 255.023438 43.15625 L 248.734375 43.15625 C 236.929688 42.273438 213.511719 46.605469 203.664062 69.753906 C 194.160156 92.136719 176.296875 137.359375 175.53125 139.316406 C 175.148438 140.238281 174.226562 141.5 174.113281 141.652344 C 173.578125 141.460938 172.273438 140.046875 171.890625 139.160156 L 149.46875 83.820312 C 146.210938 74.851562 137.585938 65.769531 125.707031 65.769531 C 113.824219 65.769531 105.203125 74.851562 102.136719 83.359375 L 79.675781 138.742188 C 79.066406 140.007812 77.796875 141.460938 77.605469 141.730469 C 77.144531 141.460938 76.226562 140.199219 75.804688 139.238281 C 75.039062 137.324219 57.179688 92.097656 47.675781 69.753906 C 37.824219 46.605469 14.445312 42.273438 2.601562 43.15625 L 0.53125 43.15625 L 0.53125 71.363281 L 4.480469 71.289062 C 5.785156 71.210938 17.398438 70.597656 21.726562 80.792969 C 31.117188 102.828125 49.398438 149.125 49.476562 149.320312 C 52.273438 156.949219 61.277344 169.863281 77.222656 169.863281 C 92.976562 169.863281 102.441406 157.328125 105.621094 149.742188 L 125.628906 100.261719 L 145.714844 149.894531 C 148.816406 157.289062 158.28125 169.863281 174.074219 169.863281 C 190.019531 169.863281 199.023438 156.949219 201.707031 149.625 C 201.898438 149.164062 220.183594 102.828125 229.570312 80.792969 C 231.949219 75.160156 236.507812 72.859375 240.339844 71.902344 C 237.121094 81.902344 235.359375 92.519531 235.359375 103.597656 C 235.359375 160.703125 281.847656 207.191406 338.953125 207.191406 C 396.097656 207.191406 442.550781 160.703125 442.550781 103.597656 C 442.550781 92.519531 440.75 81.867188 437.53125 71.863281 C 441.363281 72.820312 446 75.082031 448.453125 80.792969 C 457.808594 102.828125 476.125 149.164062 476.203125 149.320312 C 479 156.949219 488.007812 169.863281 503.949219 169.863281 C 519.703125 169.863281 529.167969 157.328125 532.351562 149.742188 L 552.433594 100.261719 L 572.554688 149.894531 C 575.65625 157.289062 585.125 169.824219 600.878906 169.824219 C 616.820312 169.824219 625.828125 156.910156 628.507812 149.585938 C 628.703125 149.125 646.984375 102.789062 656.375 80.753906 C 660.703125 70.558594 672.355469 71.132812 673.429688 71.210938 L 677.566406 71.289062 L 677.566406 43.078125 L 675.496094 43.078125 Z M 338.992188 178.984375 C 297.410156 178.984375 263.601562 145.140625 263.601562 103.597656 C 263.601562 62.011719 297.410156 28.207031 338.992188 28.207031 C 380.578125 28.207031 414.382812 62.050781 414.382812 103.597656 C 414.382812 145.179688 380.578125 178.984375 338.992188 178.984375 Z M 338.992188 178.984375 "/>
</g>
<path style=" stroke:none;fill-rule:nonzero;fill:rgb(0%,0%,0%);fill-opacity:1;" d="M 338.992188 152.65625 C 311.976562 152.65625 289.933594 130.652344 289.933594 103.597656 C 289.933594 76.574219 311.9375 54.539062 338.992188 54.539062 C 366.054688 54.539062 388.011719 76.535156 388.011719 103.597656 C 388.011719 130.652344 366.015625 152.65625 338.992188 152.65625 Z M 338.992188 82.785156 C 327.496094 82.785156 318.144531 92.136719 318.144531 103.636719 C 318.144531 115.132812 327.496094 124.484375 338.992188 124.484375 C 350.492188 124.484375 359.804688 115.132812 359.804688 103.636719 C 359.804688 92.136719 350.492188 82.785156 338.992188 82.785156 Z M 338.992188 82.785156 "/>
<path style=" stroke:none;fill-rule:nonzero;fill:rgb(0%,0%,0%);fill-opacity:1;" d="M 94.933594 258.246094 L 90.445312 258.246094 L 88.53125 252.683594 L 77.566406 252.683594 L 75.652344 258.246094 L 71.167969 258.246094 L 81.324219 230.492188 L 84.699219 230.492188 Z M 87.378906 249.082031 L 83.160156 236.777344 L 78.835938 249.082031 Z M 87.378906 249.082031 "/>
<path style=" stroke:none;fill-rule:nonzero;fill:rgb(0%,0%,0%);fill-opacity:1;" d="M 118.117188 249.925781 C 117.886719 251.304688 117.464844 252.535156 116.890625 253.605469 C 116.316406 254.675781 115.585938 255.5625 114.707031 256.289062 C 113.863281 257.015625 112.867188 257.554688 111.753906 257.898438 C 110.644531 258.28125 109.453125 258.476562 108.191406 258.476562 C 107.230469 258.476562 106.3125 258.355469 105.46875 258.128906 C 104.625 257.898438 103.78125 257.554688 103.019531 257.09375 C 102.210938 256.632812 101.519531 256.097656 100.910156 255.484375 C 100.027344 254.601562 99.414062 253.644531 99.027344 252.644531 C 98.648438 251.652344 98.417969 250.539062 98.339844 249.390625 C 98.265625 248.203125 98.226562 246.515625 98.226562 244.332031 C 98.226562 242.644531 98.265625 241.304688 98.300781 240.308594 C 98.339844 239.308594 98.457031 238.425781 98.609375 237.585938 C 98.765625 236.78125 99.027344 235.976562 99.375 235.285156 C 99.71875 234.554688 100.257812 233.871094 100.910156 233.179688 C 101.867188 232.21875 102.976562 231.492188 104.203125 230.992188 C 105.429688 230.492188 106.773438 230.226562 108.191406 230.226562 C 110.796875 230.226562 112.984375 230.953125 114.746094 232.449219 C 116.507812 233.945312 117.617188 236.015625 118.117188 238.773438 L 113.824219 238.773438 C 113.476562 237.316406 112.867188 236.164062 111.90625 235.285156 C 110.953125 234.441406 109.722656 234.023438 108.230469 234.023438 C 107.425781 234.023438 106.660156 234.171875 105.929688 234.480469 C 105.203125 234.785156 104.625 235.171875 104.128906 235.707031 C 103.742188 236.09375 103.476562 236.511719 103.28125 236.933594 C 103.09375 237.355469 102.902344 237.894531 102.789062 238.582031 C 102.671875 239.273438 102.558594 240.039062 102.519531 240.878906 C 102.480469 241.726562 102.441406 242.914062 102.441406 244.371094 C 102.441406 245.828125 102.480469 246.976562 102.519531 247.820312 C 102.558594 248.660156 102.632812 249.429688 102.789062 250.121094 C 102.902344 250.808594 103.09375 251.34375 103.28125 251.730469 C 103.476562 252.113281 103.78125 252.535156 104.128906 252.992188 C 104.625 253.527344 105.238281 253.914062 105.929688 254.222656 C 106.660156 254.527344 107.425781 254.675781 108.230469 254.675781 C 109.222656 254.675781 110.105469 254.488281 110.875 254.105469 C 111.640625 253.722656 112.253906 253.144531 112.789062 252.414062 C 113.289062 251.691406 113.671875 250.882812 113.863281 249.925781 Z M 118.117188 249.925781 "/>
<path style=" stroke:none;fill-rule:nonzero;fill:rgb(0%,0%,0%);fill-opacity:1;" d="M 141.839844 258.246094 L 124.09375 258.246094 L 124.09375 230.492188 L 141.839844 230.492188 L 141.839844 234.289062 L 128.3125 234.289062 L 128.3125 242.378906 L 139.847656 242.378906 L 139.847656 246.128906 L 128.3125 246.128906 L 128.3125 254.449219 L 141.839844 254.449219 Z M 141.839844 258.246094 "/>
<path style=" stroke:none;fill-rule:nonzero;fill:rgb(0%,0%,0%);fill-opacity:1;" d="M 165.605469 258.246094 L 148.015625 258.246094 L 148.015625 230.492188 L 152.265625 230.492188 L 152.265625 254.449219 L 165.605469 254.449219 Z M 165.605469 258.246094 "/>
<path style=" stroke:none;fill-rule:nonzero;fill:rgb(0%,0%,0%);fill-opacity:1;" d="M 188.519531 258.246094 L 170.777344 258.246094 L 170.777344 230.492188 L 188.519531 230.492188 L 188.519531 234.289062 L 174.992188 234.289062 L 174.992188 242.378906 L 186.527344 242.378906 L 186.527344 246.128906 L 174.992188 246.128906 L 174.992188 254.449219 L 188.519531 254.449219 Z M 188.519531 258.246094 "/>
<path style=" stroke:none;fill-rule:nonzero;fill:rgb(0%,0%,0%);fill-opacity:1;" d="M 214.890625 258.246094 L 209.984375 258.246094 L 204.160156 246.589844 L 198.90625 246.589844 L 198.90625 258.246094 L 194.652344 258.246094 L 194.652344 230.492188 L 205.421875 230.492188 C 207.109375 230.492188 208.644531 230.839844 209.945312 231.53125 C 211.25 232.21875 212.285156 233.179688 212.972656 234.402344 C 213.664062 235.632812 214.046875 237.011719 214.046875 238.617188 C 214.046875 240.535156 213.550781 242.109375 212.515625 243.410156 C 211.480469 244.675781 210.175781 245.558594 208.527344 246.019531 Z M 209.832031 238.617188 C 209.832031 237.242188 209.410156 236.203125 208.566406 235.402344 C 207.722656 234.632812 206.570312 234.25 205.117188 234.25 L 198.90625 234.25 L 198.90625 242.914062 L 205.117188 242.914062 C 206.535156 242.914062 207.683594 242.527344 208.527344 241.765625 C 209.410156 240.996094 209.832031 239.960938 209.832031 238.617188 Z M 209.832031 238.617188 "/>
<path style=" stroke:none;fill-rule:nonzero;fill:rgb(0%,0%,0%);fill-opacity:1;" d="M 241.03125 258.246094 L 236.546875 258.246094 L 234.632812 252.683594 L 223.667969 252.683594 L 221.75 258.246094 L 217.265625 258.246094 L 227.421875 230.492188 L 230.796875 230.492188 Z M 233.480469 249.082031 L 229.261719 236.78125 L 224.929688 249.082031 Z M 233.480469 249.082031 "/>
<path style=" stroke:none;fill-rule:nonzero;fill:rgb(0%,0%,0%);fill-opacity:1;" d="M 265.0625 244.136719 L 265.0625 245.519531 C 265.0625 247.011719 265.023438 248.320312 264.910156 249.429688 C 264.792969 250.539062 264.523438 251.652344 264.101562 252.722656 C 263.679688 253.796875 263.070312 254.753906 262.261719 255.5625 C 260.539062 257.285156 258.125 258.167969 255.097656 258.167969 L 245.320312 258.167969 L 245.320312 230.417969 L 255.097656 230.417969 C 258.125 230.417969 260.539062 231.300781 262.261719 233.023438 C 263.109375 233.832031 263.71875 234.785156 264.101562 235.785156 C 264.523438 236.816406 264.792969 237.855469 264.910156 238.925781 C 265.023438 240 265.0625 241.265625 265.0625 242.683594 Z M 260.882812 244.175781 C 260.882812 242.566406 260.847656 241.34375 260.808594 240.496094 C 260.769531 239.617188 260.617188 238.8125 260.386719 238.046875 C 260.15625 237.277344 259.847656 236.664062 259.386719 236.164062 C 258.238281 234.902344 256.667969 234.289062 254.675781 234.289062 L 249.574219 234.289062 L 249.574219 254.449219 L 254.675781 254.449219 C 256.707031 254.449219 258.277344 253.835938 259.386719 252.574219 C 260.039062 251.84375 260.460938 250.882812 260.617188 249.621094 C 260.808594 248.390625 260.882812 246.550781 260.882812 244.175781 Z M 260.882812 244.175781 "/>
<path style=" stroke:none;fill-rule:nonzero;fill:rgb(0%,0%,0%);fill-opacity:1;" d="M 290.664062 244.332031 C 290.664062 246.515625 290.625 248.203125 290.546875 249.351562 C 290.472656 250.5 290.242188 251.613281 289.855469 252.609375 C 289.476562 253.644531 288.863281 254.566406 288.019531 255.445312 C 286.023438 257.4375 283.574219 258.398438 280.699219 258.398438 C 277.785156 258.398438 275.371094 257.402344 273.417969 255.445312 C 272.535156 254.566406 271.921875 253.605469 271.535156 252.609375 C 271.15625 251.613281 270.925781 250.5 270.851562 249.351562 C 270.773438 248.164062 270.734375 246.476562 270.734375 244.292969 C 270.734375 242.605469 270.773438 241.265625 270.8125 240.265625 C 270.851562 239.273438 270.964844 238.390625 271.117188 237.546875 C 271.273438 236.742188 271.535156 235.9375 271.882812 235.246094 C 272.226562 234.519531 272.765625 233.832031 273.417969 233.140625 C 275.371094 231.183594 277.824219 230.191406 280.699219 230.191406 C 283.574219 230.191406 286.023438 231.183594 288.019531 233.140625 C 288.863281 234.023438 289.476562 234.980469 289.855469 235.976562 C 290.242188 236.972656 290.472656 238.085938 290.546875 239.234375 C 290.585938 240.457031 290.664062 242.144531 290.664062 244.332031 Z M 286.449219 244.371094 C 286.449219 241.609375 286.332031 239.65625 286.140625 238.542969 C 285.910156 237.394531 285.492188 236.511719 284.800781 235.785156 C 284.300781 235.246094 283.726562 234.863281 282.960938 234.519531 C 282.230469 234.210938 281.464844 234.0625 280.660156 234.0625 C 279.855469 234.0625 279.089844 234.210938 278.359375 234.519531 C 277.636719 234.824219 277.019531 235.246094 276.523438 235.785156 C 275.832031 236.511719 275.410156 237.472656 275.21875 238.582031 C 275.027344 239.695312 274.914062 241.648438 274.914062 244.40625 C 274.914062 245.863281 274.949219 247.050781 274.988281 247.933594 C 275.027344 248.8125 275.105469 249.582031 275.257812 250.234375 C 275.371094 250.882812 275.523438 251.382812 275.714844 251.765625 C 275.90625 252.113281 276.175781 252.535156 276.558594 252.992188 C 277.058594 253.527344 277.667969 253.953125 278.398438 254.257812 C 279.128906 254.566406 279.894531 254.714844 280.699219 254.714844 C 282.386719 254.714844 283.761719 254.144531 284.839844 252.992188 C 285.300781 252.492188 285.640625 251.921875 285.875 251.304688 C 286.101562 250.691406 286.253906 249.8125 286.332031 248.738281 C 286.410156 247.589844 286.449219 246.128906 286.449219 244.371094 Z M 286.449219 244.371094 "/>
<path style=" stroke:none;fill-rule:nonzero;fill:rgb(0%,0%,0%);fill-opacity:1;" d="M 317.492188 258.246094 L 312.585938 258.246094 L 306.761719 246.589844 L 301.511719 246.589844 L 301.511719 258.246094 L 297.257812 258.246094 L 297.257812 230.492188 L 308.027344 230.492188 C 309.714844 230.492188 311.246094 230.839844 312.546875 231.53125 C 313.851562 232.21875 314.886719 233.179688 315.578125 234.402344 C 316.265625 235.632812 316.648438 237.011719 316.648438 238.617188 C 316.648438 240.535156 316.148438 242.109375 315.117188 243.410156 C 314.078125 244.675781 312.777344 245.558594 311.128906 246.019531 Z M 312.433594 238.617188 C 312.433594 237.242188 312.015625 236.203125 311.167969 235.402344 C 310.324219 234.632812 309.175781 234.25 307.722656 234.25 L 301.511719 234.25 L 301.511719 242.914062 L 307.722656 242.914062 C 309.136719 242.914062 310.285156 242.527344 311.128906 241.765625 C 312.015625 240.996094 312.433594 239.960938 312.433594 238.617188 Z M 312.433594 238.617188 "/>
<path style=" stroke:none;fill-rule:nonzero;fill:rgb(0%,0%,0%);fill-opacity:1;" d="M 343.628906 258.246094 L 339.144531 258.246094 L 337.230469 252.683594 L 326.265625 252.683594 L 324.351562 258.246094 L 319.867188 258.246094 L 330.027344 230.492188 L 333.398438 230.492188 Z M 336.042969 249.082031 L 331.828125 236.78125 L 327.496094 249.082031 Z M 336.042969 249.082031 "/>
<path style=" stroke:none;fill-rule:nonzero;fill:rgb(0%,0%,0%);fill-opacity:1;" d="M 379.195312 244.136719 L 379.195312 245.519531 C 379.195312 247.011719 379.15625 248.320312 379.042969 249.429688 C 378.929688 250.539062 378.660156 251.652344 378.238281 252.722656 C 377.816406 253.796875 377.203125 254.753906 376.398438 255.5625 C 374.675781 257.285156 372.261719 258.167969 369.230469 258.167969 L 359.457031 258.167969 L 359.457031 230.417969 L 369.230469 230.417969 C 372.261719 230.417969 374.675781 231.300781 376.398438 233.023438 C 377.242188 233.832031 377.855469 234.785156 378.238281 235.785156 C 378.660156 236.816406 378.929688 237.855469 379.042969 238.925781 C 379.15625 240 379.195312 241.265625 379.195312 242.683594 Z M 374.980469 244.175781 C 374.980469 242.566406 374.945312 241.34375 374.90625 240.496094 C 374.867188 239.617188 374.714844 238.8125 374.484375 238.046875 C 374.253906 237.277344 373.945312 236.664062 373.484375 236.164062 C 372.335938 234.902344 370.761719 234.289062 368.769531 234.289062 L 363.675781 234.289062 L 363.675781 254.449219 L 368.769531 254.449219 C 370.800781 254.449219 372.375 253.835938 373.484375 252.574219 C 374.140625 251.84375 374.5625 250.882812 374.714844 249.621094 C 374.90625 248.390625 374.980469 246.550781 374.980469 244.175781 Z M 374.980469 244.175781 "/>
<path style=" stroke:none;fill-rule:nonzero;fill:rgb(0%,0%,0%);fill-opacity:1;" d="M 403.53125 258.246094 L 385.789062 258.246094 L 385.789062 230.492188 L 403.53125 230.492188 L 403.53125 234.289062 L 390.003906 234.289062 L 390.003906 242.378906 L 401.539062 242.378906 L 401.539062 246.128906 L 390.003906 246.128906 L 390.003906 254.449219 L 403.53125 254.449219 Z M 403.53125 258.246094 "/>
<path style=" stroke:none;fill-rule:nonzero;fill:rgb(0%,0%,0%);fill-opacity:1;" d="M 436.800781 250.3125 C 436.800781 251.535156 436.570312 252.644531 436.070312 253.683594 C 435.574219 254.714844 434.886719 255.5625 434 256.289062 C 433.082031 257.015625 432.046875 257.554688 430.824219 257.898438 C 429.636719 258.246094 428.292969 258.4375 426.835938 258.4375 C 424.726562 258.4375 422.890625 258.128906 421.320312 257.589844 C 419.746094 257.015625 418.328125 256.097656 417.023438 254.753906 L 419.820312 251.957031 C 420.433594 252.609375 421.125 253.105469 421.851562 253.527344 C 422.582031 253.953125 423.386719 254.222656 424.230469 254.371094 C 425.074219 254.527344 425.953125 254.601562 426.914062 254.601562 C 428.714844 254.601562 430.09375 254.222656 431.128906 253.492188 C 432.164062 252.761719 432.660156 251.691406 432.660156 250.351562 C 432.660156 249.082031 432.277344 248.125 431.550781 247.472656 C 431.207031 247.128906 430.824219 246.898438 430.398438 246.707031 C 429.976562 246.550781 429.328125 246.398438 428.523438 246.285156 L 425.265625 245.828125 C 423.003906 245.519531 421.242188 244.75 419.972656 243.601562 C 418.632812 242.339844 417.941406 240.574219 417.941406 238.3125 C 417.941406 236.703125 418.328125 235.285156 419.058594 234.0625 C 419.820312 232.832031 420.894531 231.875 422.273438 231.183594 C 423.652344 230.492188 425.304688 230.152344 427.21875 230.152344 C 429.097656 230.152344 430.707031 230.378906 432.046875 230.917969 C 433.390625 231.414062 434.65625 232.21875 435.839844 233.332031 L 433.121094 236.015625 C 432.546875 235.476562 431.96875 235.054688 431.320312 234.710938 C 430.667969 234.402344 430.015625 234.171875 429.328125 234.0625 C 428.636719 233.945312 427.867188 233.867188 427.066406 233.867188 C 426.03125 233.867188 425.113281 234.0625 424.34375 234.441406 C 423.578125 234.785156 423.003906 235.324219 422.621094 235.976562 C 422.238281 236.625 422.003906 237.355469 422.003906 238.195312 C 422.003906 239.308594 422.351562 240.152344 423.042969 240.804688 C 423.386719 241.109375 423.84375 241.378906 424.382812 241.609375 C 424.957031 241.839844 425.53125 241.996094 426.144531 242.109375 L 429.289062 242.566406 C 430.554688 242.757812 431.589844 243.027344 432.394531 243.335938 C 433.199219 243.640625 433.886719 244.101562 434.460938 244.597656 C 436.070312 245.941406 436.800781 247.820312 436.800781 250.3125 Z M 436.800781 250.3125 "/>
<path style=" stroke:none;fill-rule:nonzero;fill:rgb(0%,0%,0%);fill-opacity:1;" d="M 459.871094 234.25 L 452.246094 234.25 L 452.246094 258.207031 L 448.03125 258.207031 L 448.03125 234.25 L 440.367188 234.25 L 440.367188 230.457031 L 459.871094 230.457031 Z M 459.871094 234.25 "/>
<path style=" stroke:none;fill-rule:nonzero;fill:rgb(0%,0%,0%);fill-opacity:1;" d="M 485.476562 258.246094 L 480.992188 258.246094 L 479.074219 252.683594 L 468.113281 252.683594 L 466.195312 258.246094 L 461.714844 258.246094 L 471.871094 230.492188 L 475.242188 230.492188 Z M 477.925781 249.082031 L 473.710938 236.78125 L 469.378906 249.082031 Z M 477.925781 249.082031 "/>
<path style=" stroke:none;fill-rule:nonzero;fill:rgb(0%,0%,0%);fill-opacity:1;" d="M 510.042969 258.246094 L 505.136719 258.246094 L 499.3125 246.589844 L 494.0625 246.589844 L 494.0625 258.246094 L 489.808594 258.246094 L 489.808594 230.492188 L 500.578125 230.492188 C 502.265625 230.492188 503.796875 230.839844 505.097656 231.53125 C 506.402344 232.21875 507.4375 233.179688 508.128906 234.402344 C 508.820312 235.632812 509.199219 237.011719 509.199219 238.617188 C 509.199219 240.535156 508.699219 242.109375 507.667969 243.410156 C 506.628906 244.675781 505.328125 245.558594 503.679688 246.019531 Z M 504.984375 238.617188 C 504.984375 237.242188 504.5625 236.203125 503.71875 235.402344 C 502.875 234.632812 501.726562 234.25 500.269531 234.25 L 494.0625 234.25 L 494.0625 242.914062 L 500.269531 242.914062 C 501.6875 242.914062 502.835938 242.527344 503.679688 241.765625 C 504.523438 240.996094 504.984375 239.960938 504.984375 238.617188 Z M 504.984375 238.617188 "/>
<path style=" stroke:none;fill-rule:nonzero;fill:rgb(0%,0%,0%);fill-opacity:1;" d="M 532.773438 234.25 L 525.144531 234.25 L 525.144531 258.207031 L 520.925781 258.207031 L 520.925781 234.25 L 513.261719 234.25 L 513.261719 230.457031 L 532.773438 230.457031 Z M 532.773438 234.25 "/>
<path style=" stroke:none;fill-rule:nonzero;fill:rgb(0%,0%,0%);fill-opacity:1;" d="M 557.414062 248.851562 C 557.414062 250.730469 556.996094 252.378906 556.109375 253.875 C 555.269531 255.332031 554.078125 256.445312 552.546875 257.246094 C 551.015625 258.054688 549.324219 258.4375 547.449219 258.4375 C 545.570312 258.4375 543.882812 258.015625 542.351562 257.246094 C 540.859375 256.445312 539.667969 255.332031 538.789062 253.875 C 537.90625 252.414062 537.484375 250.730469 537.484375 248.851562 L 537.484375 230.457031 L 541.699219 230.457031 L 541.699219 248.621094 C 541.699219 249.851562 541.929688 250.882812 542.390625 251.804688 C 542.851562 252.722656 543.539062 253.414062 544.382812 253.914062 C 545.222656 254.410156 546.261719 254.640625 547.414062 254.640625 C 548.5625 254.640625 549.59375 254.410156 550.441406 253.914062 C 551.320312 253.414062 551.972656 252.722656 552.46875 251.84375 C 552.933594 250.921875 553.195312 249.890625 553.195312 248.660156 L 553.195312 230.492188 L 557.414062 230.492188 Z M 557.414062 248.851562 "/>
<path style=" stroke:none;fill-rule:nonzero;fill:rgb(0%,0%,0%);fill-opacity:1;" d="M 584.050781 238.886719 C 584.050781 240.496094 583.710938 241.957031 582.980469 243.21875 C 582.25 244.484375 581.21875 245.480469 579.875 246.210938 C 578.535156 246.9375 576.964844 247.320312 575.199219 247.320312 L 568.914062 247.320312 L 568.914062 258.246094 L 564.660156 258.246094 L 564.660156 230.492188 L 575.199219 230.492188 C 576.5 230.492188 577.726562 230.722656 578.839844 231.144531 C 579.988281 231.570312 580.910156 232.179688 581.714844 232.910156 C 582.480469 233.675781 583.09375 234.554688 583.480469 235.554688 C 583.820312 236.550781 584.050781 237.664062 584.050781 238.886719 Z M 579.835938 238.886719 C 579.835938 237.433594 579.378906 236.320312 578.496094 235.476562 C 577.613281 234.671875 576.425781 234.25 574.929688 234.25 L 568.875 234.25 L 568.875 243.488281 L 574.929688 243.488281 C 576.425781 243.488281 577.613281 243.066406 578.496094 242.261719 C 579.378906 241.457031 579.835938 240.347656 579.835938 238.886719 Z M 579.835938 238.886719 "/>
<path style=" stroke:none;fill-rule:nonzero;fill:rgb(0%,0%,0%);fill-opacity:1;" d="M 606.894531 250.3125 C 606.894531 251.535156 606.664062 252.644531 606.164062 253.683594 C 605.667969 254.714844 604.976562 255.5625 604.09375 256.289062 C 603.175781 257.015625 602.140625 257.554688 600.914062 257.898438 C 599.726562 258.246094 598.382812 258.4375 596.929688 258.4375 C 594.820312 258.4375 592.980469 258.128906 591.410156 257.589844 C 589.835938 257.015625 588.417969 256.097656 587.117188 254.753906 L 589.914062 251.957031 C 590.527344 252.609375 591.21875 253.105469 591.949219 253.527344 C 592.675781 253.953125 593.480469 254.222656 594.320312 254.371094 C 595.167969 254.527344 596.046875 254.601562 597.007812 254.601562 C 598.804688 254.601562 600.183594 254.222656 601.222656 253.492188 C 602.253906 252.761719 602.753906 251.691406 602.753906 250.351562 C 602.753906 249.082031 602.371094 248.125 601.644531 247.472656 C 601.296875 247.128906 600.914062 246.898438 600.492188 246.707031 C 600.070312 246.550781 599.421875 246.398438 598.613281 246.285156 L 595.359375 245.828125 C 593.097656 245.519531 591.335938 244.75 590.066406 243.601562 C 588.726562 242.339844 588.035156 240.574219 588.035156 238.3125 C 588.035156 236.703125 588.417969 235.285156 589.148438 234.0625 C 589.914062 232.832031 590.988281 231.875 592.367188 231.183594 C 593.746094 230.492188 595.398438 230.152344 597.3125 230.152344 C 599.191406 230.152344 600.800781 230.378906 602.140625 230.917969 C 603.484375 231.414062 604.746094 232.21875 605.933594 233.332031 L 603.214844 236.015625 C 602.640625 235.476562 602.0625 235.054688 601.414062 234.710938 C 600.761719 234.402344 600.109375 234.171875 599.421875 234.0625 C 598.730469 233.945312 597.960938 233.867188 597.160156 233.867188 C 596.121094 233.867188 595.203125 234.0625 594.4375 234.441406 C 593.671875 234.785156 593.097656 235.324219 592.710938 235.976562 C 592.328125 236.625 592.097656 237.355469 592.097656 238.195312 C 592.097656 239.308594 592.445312 240.152344 593.132812 240.804688 C 593.480469 241.109375 593.941406 241.378906 594.476562 241.609375 C 595.050781 241.839844 595.625 241.996094 596.238281 242.109375 L 599.382812 242.566406 C 600.644531 242.757812 601.679688 243.027344 602.484375 243.335938 C 603.292969 243.640625 603.980469 244.101562 604.554688 244.597656 C 606.128906 245.941406 606.894531 247.820312 606.894531 250.3125 Z M 606.894531 250.3125 "/>
</g>
</svg>
